<svg width="80" height="24" viewBox="0 0 80 24" fill="none" xmlns="http://www.w3.org/2000/svg">
<path d="M34.9035 22.9414H38.9073L38.8921 22.8501L38.3136 22.8044C38.1157 22.8044 37.9634 22.7892 37.8416 22.774C37.7198 22.7587 37.6437 22.7435 37.5828 22.7131C37.5219 22.6978 37.4763 22.6826 37.4763 22.6674C37.461 22.6522 37.461 22.6217 37.461 22.5913L39.3792 13.5637H40.7493C41.2669 13.6245 41.6475 13.7616 41.8607 14.0051C42.0738 14.2487 42.2413 14.7511 42.363 15.5123L42.3935 15.695H42.4544L42.6827 13.4266H35.1927L34.4924 15.695H34.5685L34.6903 15.4971C35.0709 14.8729 35.4211 14.401 35.7255 14.0965C36.03 13.792 36.4106 13.6245 36.8521 13.5637H38.4049L36.5172 22.5456C36.4867 22.6674 36.2279 22.7587 35.7255 22.7892L34.9491 22.8501L34.9035 22.9414Z" fill="white"/>
<path d="M46.2667 23.1241C46.7387 23.1241 47.3476 22.3934 48.0936 20.9319L48.0022 20.8862L46.8604 22.6217L46.1297 22.5304L47.3019 19.6074C47.8348 18.283 48.1088 17.5066 48.1088 17.2934C48.1088 17.0499 48.0022 16.8367 47.8043 16.6236C47.6064 16.4105 47.4237 16.3039 47.241 16.3039C46.8757 16.3039 46.5407 16.4714 46.221 16.8063C45.9166 17.1108 45.5055 17.6436 44.9727 18.42C44.4399 19.2116 43.968 19.988 43.5721 20.7644L43.4808 20.734C43.968 19.5465 44.6987 17.2325 45.7034 13.8225L45.9927 12.8481L43.7244 13.1069L43.6939 13.1983L44.9118 13.244C45.0184 13.244 45.0488 13.3657 44.9879 13.5941L44.6682 14.7207C44.4551 15.4818 44.1659 16.4257 43.8309 17.5522C43.4808 18.694 43.1763 19.6531 42.9327 20.4143L42.065 22.911L42.8262 22.9871L43.3742 21.5408C43.9984 20.2012 44.653 19.0746 45.3229 18.1612C45.9927 17.2478 46.4646 16.7911 46.7234 16.7911C46.8909 16.7911 47.0279 16.852 47.1497 16.9433C47.2715 17.0499 47.3324 17.1717 47.3324 17.3239C47.3324 17.4761 47.0583 18.2373 46.5407 19.6074C46.419 19.9424 46.2515 20.3534 46.0384 20.8558C45.8252 21.3582 45.673 21.754 45.5664 22.0432C45.4446 22.3325 45.399 22.4999 45.399 22.5456C45.399 22.6522 45.5055 22.774 45.7187 22.911C45.9318 23.0632 46.1145 23.1241 46.2667 23.1241Z" fill="white"/>
<path d="M50.3352 23.1241C51.1573 23.1241 51.9794 22.4086 52.8015 20.9623L52.6949 20.9167C52.3295 21.5256 51.9946 21.9519 51.6901 22.1955C51.3857 22.4543 51.0355 22.576 50.6702 22.576C50.2743 22.576 49.9699 22.4086 49.7567 22.0737C49.5436 21.7387 49.437 21.2973 49.437 20.7492C49.437 20.2773 49.5132 19.7749 49.6806 19.2268C50.9746 19.0289 51.9337 18.7701 52.5579 18.4504C53.1668 18.146 53.4865 17.7349 53.4865 17.2478C53.4865 16.9737 53.3495 16.7454 53.0907 16.5627C52.8167 16.38 52.497 16.2887 52.1164 16.2887C51.5683 16.2887 51.0203 16.5323 50.4722 16.989C49.9242 17.4609 49.4827 18.0698 49.1478 18.8006C48.7976 19.5313 48.6302 20.2773 48.6302 21.0232C48.6302 21.617 48.7824 22.1193 49.0869 22.5151C49.3914 22.9262 49.8024 23.1241 50.3352 23.1241ZM49.772 19.0746L49.7415 19.0594C50.046 18.1612 50.4266 17.4761 50.9137 16.989C51.3095 16.6236 51.6445 16.4257 51.9489 16.4257C52.1773 16.4257 52.36 16.5018 52.497 16.6541C52.6188 16.8063 52.6949 16.989 52.6949 17.2021C52.6949 17.7197 52.4818 18.1155 52.0707 18.3895C51.6597 18.6636 50.8985 18.8919 49.772 19.0746Z" fill="white"/>
<path d="M55.7541 22.9414H62.4221L63.4116 20.3077L63.305 20.2925L63.1985 20.4904C62.757 21.2516 62.3307 21.8301 61.9349 22.2107C61.5239 22.5913 60.9911 22.7892 60.3364 22.7892L58.0681 22.7283L59.9559 13.8225C59.9711 13.7007 60.2299 13.6245 60.7475 13.5789L61.6609 13.518L61.7218 13.4266H57.7789L57.7941 13.518L58.1595 13.5637C58.5857 13.6245 58.8293 13.655 58.9054 13.6702C58.9815 13.7007 59.012 13.7311 59.012 13.7768L57.1547 22.5304C57.1243 22.6522 56.8655 22.7283 56.3631 22.7892L55.7998 22.8501L55.7541 22.9414Z" fill="white"/>
<path d="M67.9078 23.1393C68.5015 23.1393 69.1714 22.4086 69.9021 20.9319L69.8108 20.8862L68.6994 22.6217L68.0144 22.5456L68.9278 19.6379L70.0696 16.3344L69.3084 16.2735L68.8669 17.7349H68.8517C68.8517 16.8215 68.5624 16.3648 67.9839 16.3648C67.5577 16.3648 67.1466 16.5779 66.7204 17.0042C66.0962 17.6284 65.5177 18.3895 65.0001 19.2877C64.4825 20.1859 64.2237 21.008 64.2237 21.754C64.2237 22.165 64.3303 22.4999 64.5738 22.7435C64.8022 22.9871 65.0914 23.1089 65.4264 23.1089C65.7917 23.1089 66.1571 22.8957 66.5377 22.439C66.9183 21.9975 67.4207 21.2364 68.0448 20.1707H68.0753C67.649 21.2364 67.4511 21.891 67.4511 22.1346C67.4511 22.3934 67.4816 22.6217 67.5729 22.8348C67.6642 23.048 67.7708 23.1393 67.9078 23.1393ZM65.8374 22.4847C65.6243 22.4847 65.4264 22.4086 65.2741 22.2259C65.1219 22.0432 65.0458 21.7844 65.0458 21.419C65.0458 20.7644 65.2132 20.0033 65.5786 19.1355C65.9287 18.2678 66.3093 17.6284 66.7356 17.2021C67.0096 16.9281 67.2836 16.7911 67.5577 16.7911C67.8774 16.7911 68.1362 16.9433 68.3493 17.2173C68.5472 17.5066 68.6538 17.7958 68.6538 18.0851C68.6538 18.4504 68.532 18.8767 68.2884 19.3639C67.2532 21.4495 66.4311 22.4847 65.8374 22.4847Z" fill="white"/>
<path d="M72.0525 23.1241C72.5396 23.1241 73.0115 22.9566 73.4378 22.5913C73.8641 22.2259 74.062 21.7996 74.062 21.2973C74.062 21.0385 73.9706 20.7644 73.8184 20.4752C73.6662 20.2012 73.316 19.7901 72.768 19.2573C72.1286 18.6483 71.7936 18.1307 71.7936 17.7349C71.7784 17.3696 71.885 17.0651 72.1286 16.8063C72.3569 16.5475 72.6766 16.4105 73.0724 16.4105C73.4682 16.4105 73.8184 16.6084 74.1076 16.989C73.7727 17.0955 73.6053 17.2934 73.6053 17.5827C73.6053 17.7349 73.6357 17.8567 73.7271 17.9481C73.8184 18.0394 73.925 18.0851 74.0772 18.0851C74.2142 18.0851 74.336 18.0394 74.4426 17.9176C74.5491 17.811 74.5948 17.6588 74.5948 17.4761C74.5796 17.1108 74.4426 16.8215 74.1838 16.6084C73.9097 16.3953 73.5444 16.2887 73.0724 16.2887C72.6157 16.2887 72.1742 16.4714 71.7784 16.8215C71.3674 17.1869 71.1695 17.5979 71.1847 18.0698C71.1847 18.3134 71.2456 18.5418 71.3674 18.7701C71.4892 19.0137 71.611 19.1964 71.7328 19.3334C71.8545 19.4856 72.0677 19.6836 72.3417 19.9576C72.3417 19.9728 72.4026 20.0337 72.5244 20.1555C72.6462 20.2773 72.7071 20.3534 72.7375 20.3838C72.768 20.4143 72.8289 20.4904 72.9202 20.597C73.0115 20.7035 73.0877 20.7797 73.1181 20.8405C73.1486 20.9014 73.1942 20.9928 73.2551 21.0841C73.316 21.1755 73.3465 21.2668 73.3769 21.3582C73.3921 21.4495 73.4074 21.5408 73.4074 21.6322C73.4074 21.9823 73.3008 22.302 73.0724 22.5913C72.8441 22.8805 72.5092 23.0175 72.0525 23.0175C71.5348 23.0175 71.0781 22.7892 70.6823 22.3172C70.8193 22.2716 70.9411 22.1955 71.0477 22.0737C71.139 21.9671 71.1999 21.8453 71.1999 21.7083C71.1999 21.5713 71.1543 21.4495 71.0629 21.3582C70.9716 21.2668 70.8498 21.2059 70.7128 21.2059C70.5758 21.2059 70.454 21.2668 70.3626 21.3886C70.2561 21.5104 70.2104 21.6626 70.2104 21.8453C70.2104 22.2411 70.3779 22.5456 70.7432 22.774C71.0934 23.0175 71.5348 23.1241 72.0525 23.1241Z" fill="white"/>
<path d="M75.8161 23.1241C76.2881 23.1241 76.8818 22.3934 77.6125 20.9319L77.5212 20.8862L76.4251 22.6217L75.6182 22.5304L77.3081 16.9433H78.6477L78.7695 16.5323L77.4451 16.517L78.0845 14.4466H77.3385L76.6991 16.517L75.6182 16.5323L75.4812 16.9281L76.5621 16.9433L74.8875 22.4999C74.8418 22.6217 74.9484 22.7435 75.192 22.8957C75.4355 23.048 75.6487 23.1241 75.8161 23.1241Z" fill="white"/>
<path d="M78.8804 23.1545C79.063 23.1545 79.2153 23.0936 79.3371 22.9566C79.4589 22.8196 79.535 22.6522 79.535 22.4695C79.535 22.302 79.4741 22.1498 79.3523 22.0128C79.2305 21.891 79.0783 21.8149 78.8956 21.8149C78.6977 21.8149 78.5302 21.891 78.3932 22.0128C78.2562 22.1498 78.1953 22.302 78.1953 22.4695C78.1953 22.6522 78.2562 22.8196 78.3932 22.9566C78.515 23.0936 78.6825 23.1545 78.8804 23.1545Z" fill="white"/>
<path d="M3.94538 10H5.74684L7.05354 2.62925H11.3669L11.646 1.11957H1.20513L0.926025 2.62925H5.25207L3.94538 10Z" fill="white"/>
<path d="M11.2996 10H13.1011L13.4182 8.22393V8.24931C13.7861 6.16874 14.8898 4.8113 16.26 4.8113C17.4905 4.8113 17.8711 5.54711 17.5413 7.46275L17.0846 10H18.886L19.3808 7.24708C19.8629 4.48146 19.1905 3.47924 17.4017 3.45386C15.4861 3.45386 14.357 4.58295 13.7861 6.27024H13.6846L14.8518 1.11957H12.8727L11.2996 10Z" fill="white"/>
<path d="M23.9498 10.203C25.5483 10.203 26.2968 10.0508 27.6034 9.58137L27.8572 8.13513C27.0833 8.4396 26.3729 8.83288 24.8251 8.83288C23.1505 8.83288 22.3894 8.41423 22.364 7.37395H28.2631L28.4534 6.33367C28.7325 4.60832 27.4132 3.45386 25.1423 3.45386C22.8461 3.45386 21.0827 4.79862 20.7274 6.82843C20.3722 8.85825 21.6535 10.203 23.9498 10.203ZM22.4782 6.49859C22.808 5.29339 23.5692 4.83668 24.9013 4.83668C26.2714 4.83668 26.8803 5.25533 26.7281 6.3971L22.4782 6.49859Z" fill="white"/>
<path d="M33.0616 10H34.863L35.5354 6.19412H41.7136L41.9547 4.78593H35.7764L36.157 2.62925H42.4495L42.7159 1.11957H34.6347L33.0616 10Z" fill="white"/>
<path d="M44.8527 2.56582C45.5505 2.56582 46.0326 2.23597 46.1594 1.53822C46.2736 0.853161 45.893 0.523315 45.2079 0.523315C44.5356 0.523315 44.0408 0.853161 43.9266 1.53822C43.7998 2.23597 44.1677 2.56582 44.8527 2.56582ZM42.658 10H44.4594L45.5759 3.65685H43.7744L42.658 10Z" fill="white"/>
<path d="M46.2912 10H48.0927L48.486 7.75454C48.8793 5.78815 50.0971 4.96354 52.7105 4.96354L52.9643 3.45386C50.5919 3.45386 49.4882 4.18967 48.7905 6.27024H48.6636L49.3867 3.65685H47.4076L46.2912 10Z" fill="white"/>
<path d="M55.8854 10.203C58.1182 10.203 59.7294 9.58137 59.9831 8.10976C60.4652 5.34413 54.5787 6.765 54.8071 5.53443C54.8832 5.0904 55.5682 4.87474 57.0652 4.87474C58.0167 4.87474 59.1204 5.01429 59.9831 5.20458L60.2368 3.80908C59.1712 3.59341 57.8898 3.45386 57.1287 3.45386C54.8959 3.45386 53.272 4.13893 53.0183 5.5598C52.5362 8.31274 58.448 6.75232 58.2197 8.10976C58.1182 8.64258 57.4078 8.80751 55.8473 8.80751C54.7309 8.80751 53.8175 8.66796 52.828 8.26199L52.5743 9.70824C53.5765 10.0127 54.9085 10.203 55.8854 10.203Z" fill="white"/>
<path d="M62.8354 10.1269C63.5205 10.1269 64.0406 10.0508 64.5988 9.87316L64.7638 8.92168C62.9116 9.02317 62.9496 8.84556 63.216 7.33589L63.6347 4.96354H65.4615L65.7026 3.65685H63.863L64.1802 1.88076L62.5944 2.13448L62.3153 3.65685H61.1608L60.9198 4.96354H61.8332L61.3511 7.71648C61.034 9.53063 61.1862 10.1269 62.8354 10.1269Z" fill="white"/>
</svg>
