<svg width="41" height="41" viewBox="0 0 41 41" fill="none" xmlns="http://www.w3.org/2000/svg">
<circle cx="20.5" cy="20.5" r="20.5" fill="#FFE043"/>
<path d="M25 14.9227H25.1V14.8227V12.1197V12.0319L25.0129 12.0205C24.7246 11.9831 23.7453 11.9 22.6062 11.9C21.2881 11.9 20.3762 12.2529 19.7522 12.8068C19.1293 13.3595 18.8048 14.1023 18.641 14.8609C18.4773 15.6192 18.4726 16.4005 18.495 17.0388C18.5006 17.1985 18.5079 17.3496 18.5149 17.4892C18.5158 17.5077 18.5167 17.526 18.5176 17.5441C18.5236 17.6626 18.529 17.7719 18.5328 17.871C18.5395 18.048 18.54 18.183 18.5305 18.275H16H15.9V18.375V21.3967V21.4967H16H18.5143V29V29.1H18.6143H21.8195H21.9195V29V21.4975H24.3281H24.4157L24.4272 21.4105L24.8254 18.3888L24.8403 18.2757H24.7263H21.9253C21.9503 17.8328 21.9365 17.4136 21.9239 17.0336C21.9233 17.0134 21.9226 16.9934 21.922 16.9734C21.9079 16.5442 21.8988 16.1728 21.9486 15.8651C21.998 15.5601 22.1032 15.3317 22.3073 15.1761C22.5143 15.0184 22.8395 14.9227 23.3569 14.9227H25Z" fill="black" stroke="black" stroke-width="0.2"/>
</svg>
