<svg width="41" height="41" viewBox="0 0 41 41" fill="none" xmlns="http://www.w3.org/2000/svg">
<circle cx="20.5" cy="20.5" r="20.5" fill="#FFE043"/>
<path d="M30 14.8276C29.2934 15.1375 28.5406 15.3429 27.7556 15.4427C28.5631 14.9606 29.1794 14.2029 29.4692 13.2897C28.7163 13.7386 27.8851 14.0557 26.9992 14.2326C26.2843 13.4714 25.2654 13 24.1539 13C21.9974 13 20.2613 14.7504 20.2613 16.8962C20.2613 17.2049 20.2874 17.5018 20.3516 17.7844C17.1132 17.6265 14.2478 16.0744 12.3229 13.7101C11.9868 14.2932 11.7897 14.9606 11.7897 15.679C11.7897 17.028 12.4844 18.2238 13.5199 18.9161C12.8941 18.9042 12.2801 18.7226 11.76 18.4364C11.76 18.4483 11.76 18.4637 11.76 18.4791C11.76 20.372 13.1102 21.9443 14.8807 22.3064C14.5637 22.3931 14.2181 22.4347 13.8595 22.4347C13.6101 22.4347 13.3584 22.4204 13.1221 22.3682C13.6267 23.9108 15.0589 25.0448 16.7618 25.0816C15.4365 26.1183 13.7538 26.7429 11.9322 26.7429C11.6128 26.7429 11.3064 26.7287 11 26.6895C12.7254 27.8022 14.7703 28.4375 16.9755 28.4375C24.1432 28.4375 28.062 22.5 28.062 17.3534C28.062 17.1812 28.0561 17.0149 28.0478 16.8499C28.8208 16.3013 29.4704 15.6161 30 14.8276Z" fill="black"/>
</svg>
