<svg width="30" height="28" viewBox="0 0 30 28" fill="none" xmlns="http://www.w3.org/2000/svg">
<g clip-path="url(#clip0_2_289)" filter="url(#filter0_d_2_289)">
<path d="M15 20C15.3397 19.9996 15.6713 19.8985 15.9519 19.7099C20.1079 16.9312 21.9074 15.026 22.9 13.8349C25.0153 11.2958 26.028 8.68906 25.9994 5.86615C25.9661 2.63125 23.331 0 20.1253 0C17.7943 0 16.1798 1.29323 15.2396 2.37031C15.2098 2.40409 15.173 2.43117 15.1316 2.44973C15.0903 2.46829 15.0454 2.4779 15 2.4779C14.9546 2.4779 14.9097 2.46829 14.8684 2.44973C14.827 2.43117 14.7902 2.40409 14.7604 2.37031C13.8202 1.29219 12.2057 0 9.87469 0C6.669 0 4.0339 2.63125 4.00059 5.86667C3.97203 8.6901 4.98577 11.2969 7.09999 13.8354C8.09258 15.0266 9.89215 16.9318 14.0481 19.7104C14.3287 19.8988 14.6604 19.9997 15 20Z" fill="#D1B06B"/>
</g>
<defs>
<filter id="filter0_d_2_289" x="0" y="0" width="30" height="28" filterUnits="userSpaceOnUse" color-interpolation-filters="sRGB">
<feFlood flood-opacity="0" result="BackgroundImageFix"/>
<feColorMatrix in="SourceAlpha" type="matrix" values="0 0 0 0 0 0 0 0 0 0 0 0 0 0 0 0 0 0 127 0" result="hardAlpha"/>
<feOffset dy="4"/>
<feGaussianBlur stdDeviation="2"/>
<feComposite in2="hardAlpha" operator="out"/>
<feColorMatrix type="matrix" values="0 0 0 0 0 0 0 0 0 0 0 0 0 0 0 0 0 0 0.25 0"/>
<feBlend mode="normal" in2="BackgroundImageFix" result="effect1_dropShadow_2_289"/>
<feBlend mode="normal" in="SourceGraphic" in2="effect1_dropShadow_2_289" result="shape"/>
</filter>
<clipPath id="clip0_2_289">
<rect width="22" height="20" fill="white" transform="translate(4)"/>
</clipPath>
</defs>
</svg>
