<svg width="414" height="137" viewBox="0 0 414 137" fill="none" xmlns="http://www.w3.org/2000/svg">
<path d="M26.3086 87.1343H20.1738L11.1035 71.2085V87.1343H4.93359V61.5405H11.1035L20.1562 77.4663V61.5405H26.3086V87.1343ZM39.1406 87.4858C36.2227 87.4858 33.8613 86.6187 32.0566 84.8843C30.252 83.1382 29.3496 80.8706 29.3496 78.0815V77.5894C29.3496 75.644 29.707 73.9272 30.4219 72.439C31.1484 70.9507 32.2031 69.8022 33.5859 68.9937C34.9688 68.1733 36.6094 67.7632 38.5078 67.7632C41.1797 67.7632 43.2891 68.5952 44.8359 70.2593C46.3828 71.9116 47.1562 74.2202 47.1562 77.1851V79.4878H35.3789C35.5898 80.5542 36.0527 81.3921 36.7676 82.0015C37.4824 82.6108 38.4082 82.9155 39.5449 82.9155C41.4199 82.9155 42.8848 82.2593 43.9395 80.9468L46.6465 84.146C45.9082 85.1655 44.8594 85.98 43.5 86.5894C42.1523 87.187 40.6992 87.4858 39.1406 87.4858ZM38.4727 72.3335C36.7383 72.3335 35.707 73.4819 35.3789 75.7788H41.3555V75.3218C41.3789 74.3726 41.1387 73.6401 40.6348 73.1245C40.1309 72.5972 39.4102 72.3335 38.4727 72.3335ZM55.1543 68.1147L55.3477 70.3472C56.6953 68.6245 58.5059 67.7632 60.7793 67.7632C63.1816 67.7632 64.8047 68.7183 65.6484 70.6284C66.9375 68.7183 68.8008 67.7632 71.2383 67.7632C75.0938 67.7632 77.0742 70.0952 77.1797 74.7593V87.1343H71.2383V75.1284C71.2383 74.1558 71.0742 73.4468 70.7461 73.0015C70.418 72.5562 69.8203 72.3335 68.9531 72.3335C67.7812 72.3335 66.9082 72.855 66.334 73.8979L66.3516 74.144V87.1343H60.4102V75.1636C60.4102 74.1675 60.252 73.4468 59.9355 73.0015C59.6191 72.5562 59.0156 72.3335 58.125 72.3335C56.9883 72.3335 56.1211 72.855 55.5234 73.8979V87.1343H49.5996V68.1147H55.1543ZM79.8164 77.4487C79.8164 75.5503 80.1855 73.8628 80.9238 72.3862C81.6621 70.8979 82.7227 69.7554 84.1055 68.9585C85.4883 68.1616 87.1113 67.7632 88.9746 67.7632C91.8223 67.7632 94.0664 68.6479 95.707 70.4175C97.3477 72.1753 98.168 74.5718 98.168 77.6069V77.8179C98.168 80.7827 97.3418 83.1382 95.6895 84.8843C94.0488 86.6187 91.8223 87.4858 89.0098 87.4858C86.3027 87.4858 84.1289 86.6772 82.4883 85.0601C80.8477 83.4312 79.9629 81.228 79.834 78.4507L79.8164 77.4487ZM85.7402 77.8179C85.7402 79.5757 86.0156 80.8647 86.5664 81.6851C87.1172 82.5054 87.9316 82.9155 89.0098 82.9155C91.1191 82.9155 92.1973 81.2925 92.2441 78.0464V77.4487C92.2441 74.0386 91.1543 72.3335 88.9746 72.3335C86.9941 72.3335 85.9219 73.8042 85.7578 76.7456L85.7402 77.8179ZM118.945 87.4858C116.027 87.4858 113.666 86.6187 111.861 84.8843C110.057 83.1382 109.154 80.8706 109.154 78.0815V77.5894C109.154 75.644 109.512 73.9272 110.227 72.439C110.953 70.9507 112.008 69.8022 113.391 68.9937C114.773 68.1733 116.414 67.7632 118.312 67.7632C120.984 67.7632 123.094 68.5952 124.641 70.2593C126.188 71.9116 126.961 74.2202 126.961 77.1851V79.4878H115.184C115.395 80.5542 115.857 81.3921 116.572 82.0015C117.287 82.6108 118.213 82.9155 119.35 82.9155C121.225 82.9155 122.689 82.2593 123.744 80.9468L126.451 84.146C125.713 85.1655 124.664 85.98 123.305 86.5894C121.957 87.187 120.504 87.4858 118.945 87.4858ZM118.277 72.3335C116.543 72.3335 115.512 73.4819 115.184 75.7788H121.16V75.3218C121.184 74.3726 120.943 73.6401 120.439 73.1245C119.936 72.5972 119.215 72.3335 118.277 72.3335ZM134.801 68.1147L134.994 70.3472C136.307 68.6245 138.117 67.7632 140.426 67.7632C142.406 67.7632 143.883 68.355 144.855 69.5386C145.84 70.7222 146.35 72.5034 146.385 74.8823V87.1343H140.443V75.1284C140.443 74.1675 140.25 73.4644 139.863 73.019C139.477 72.562 138.773 72.3335 137.754 72.3335C136.594 72.3335 135.732 72.7905 135.17 73.7046V87.1343H129.246V68.1147H134.801ZM155.93 87.1343H149.988V68.1147H155.93V87.1343ZM149.637 63.2104C149.637 62.3667 149.941 61.6753 150.551 61.1362C151.16 60.5972 151.951 60.3276 152.924 60.3276C153.896 60.3276 154.688 60.5972 155.297 61.1362C155.906 61.6753 156.211 62.3667 156.211 63.2104C156.211 64.0542 155.906 64.7456 155.297 65.2847C154.688 65.8237 153.896 66.0933 152.924 66.0933C151.951 66.0933 151.16 65.8237 150.551 65.2847C149.941 64.7456 149.637 64.0542 149.637 63.2104ZM165.193 68.1147L165.387 70.3472C166.734 68.6245 168.545 67.7632 170.818 67.7632C173.221 67.7632 174.844 68.7183 175.688 70.6284C176.977 68.7183 178.84 67.7632 181.277 67.7632C185.133 67.7632 187.113 70.0952 187.219 74.7593V87.1343H181.277V75.1284C181.277 74.1558 181.113 73.4468 180.785 73.0015C180.457 72.5562 179.859 72.3335 178.992 72.3335C177.82 72.3335 176.947 72.855 176.373 73.8979L176.391 74.144V87.1343H170.449V75.1636C170.449 74.1675 170.291 73.4468 169.975 73.0015C169.658 72.5562 169.055 72.3335 168.164 72.3335C167.027 72.3335 166.16 72.855 165.562 73.8979V87.1343H159.639V68.1147H165.193ZM205.816 87.1343H199.875V68.1147H205.816V87.1343ZM199.523 63.2104C199.523 62.3667 199.828 61.6753 200.438 61.1362C201.047 60.5972 201.838 60.3276 202.811 60.3276C203.783 60.3276 204.574 60.5972 205.184 61.1362C205.793 61.6753 206.098 62.3667 206.098 63.2104C206.098 64.0542 205.793 64.7456 205.184 65.2847C204.574 65.8237 203.783 66.0933 202.811 66.0933C201.838 66.0933 201.047 65.8237 200.438 65.2847C199.828 64.7456 199.523 64.0542 199.523 63.2104ZM227.139 77.7651C227.139 80.7183 226.471 83.0796 225.135 84.8491C223.811 86.6069 222.018 87.4858 219.756 87.4858C218.01 87.4858 216.574 86.8472 215.449 85.5698V94.4468H209.525V68.1147H215.062L215.238 69.8726C216.375 68.4663 217.869 67.7632 219.721 67.7632C222.064 67.7632 223.887 68.6304 225.188 70.3647C226.488 72.0874 227.139 74.4604 227.139 77.4839V77.7651ZM221.215 77.396C221.215 74.021 220.23 72.3335 218.262 72.3335C216.855 72.3335 215.918 72.8374 215.449 73.8452V81.3335C215.965 82.3882 216.914 82.9155 218.297 82.9155C220.184 82.9155 221.156 81.2866 221.215 78.0288V77.396ZM239.725 81.7905C239.725 81.2866 239.461 80.8823 238.934 80.5776C238.406 80.2729 237.404 79.9565 235.928 79.6284C234.451 79.3003 233.232 78.8726 232.271 78.3452C231.311 77.8062 230.578 77.1558 230.074 76.394C229.57 75.6323 229.318 74.7593 229.318 73.7749C229.318 72.0288 230.039 70.5933 231.48 69.4683C232.922 68.3315 234.809 67.7632 237.141 67.7632C239.648 67.7632 241.664 68.3315 243.188 69.4683C244.711 70.605 245.473 72.0991 245.473 73.9507H239.531C239.531 72.4272 238.729 71.6655 237.123 71.6655C236.502 71.6655 235.98 71.8413 235.559 72.1929C235.137 72.5327 234.926 72.9604 234.926 73.4761C234.926 74.0034 235.184 74.4312 235.699 74.7593C236.215 75.0874 237.035 75.3569 238.16 75.5679C239.297 75.7788 240.293 76.0308 241.148 76.3237C244.008 77.3081 245.438 79.0718 245.438 81.6147C245.438 83.3491 244.664 84.7612 243.117 85.8511C241.582 86.9409 239.59 87.4858 237.141 87.4858C235.512 87.4858 234.059 87.1929 232.781 86.6069C231.504 86.021 230.508 85.2241 229.793 84.2163C229.078 83.2085 228.721 82.1479 228.721 81.0347H234.258C234.281 81.9136 234.574 82.5581 235.137 82.9683C235.699 83.3667 236.42 83.5659 237.299 83.5659C238.107 83.5659 238.711 83.4019 239.109 83.0737C239.52 82.7456 239.725 82.3179 239.725 81.7905ZM258.938 87.1343C258.727 86.7476 258.539 86.1792 258.375 85.4292C257.285 86.8003 255.762 87.4858 253.805 87.4858C252.012 87.4858 250.488 86.9468 249.234 85.8687C247.98 84.7788 247.354 83.4136 247.354 81.7729C247.354 79.7104 248.115 78.1519 249.639 77.0972C251.162 76.0425 253.377 75.5151 256.283 75.5151H258.111V74.5132C258.111 72.7671 257.355 71.894 255.844 71.894C254.438 71.894 253.734 72.5854 253.734 73.9683H247.811C247.811 72.1284 248.59 70.6343 250.148 69.4858C251.719 68.3374 253.717 67.7632 256.143 67.7632C258.568 67.7632 260.484 68.355 261.891 69.5386C263.297 70.7222 264.018 72.3452 264.053 74.4077V82.8276C264.076 84.5737 264.346 85.9097 264.861 86.8354V87.1343H258.938ZM255.229 83.2671C255.967 83.2671 256.576 83.1089 257.057 82.7925C257.549 82.4761 257.9 82.1187 258.111 81.7202V78.6792H256.389C254.326 78.6792 253.295 79.605 253.295 81.4565C253.295 81.9956 253.477 82.4351 253.84 82.7749C254.203 83.103 254.666 83.2671 255.229 83.2671ZM272.947 68.1147L273.141 70.3472C274.488 68.6245 276.299 67.7632 278.572 67.7632C280.975 67.7632 282.598 68.7183 283.441 70.6284C284.73 68.7183 286.594 67.7632 289.031 67.7632C292.887 67.7632 294.867 70.0952 294.973 74.7593V87.1343H289.031V75.1284C289.031 74.1558 288.867 73.4468 288.539 73.0015C288.211 72.5562 287.613 72.3335 286.746 72.3335C285.574 72.3335 284.701 72.855 284.127 73.8979L284.145 74.144V87.1343H278.203V75.1636C278.203 74.1675 278.045 73.4468 277.729 73.0015C277.412 72.5562 276.809 72.3335 275.918 72.3335C274.781 72.3335 273.914 72.855 273.316 73.8979V87.1343H267.393V68.1147H272.947ZM12.2461 122.085L15.252 110.115H21.4922L15.2871 129.134H9.24023L3.03516 110.115H9.29297L12.2461 122.085ZM22.2305 119.449C22.2305 117.55 22.5996 115.863 23.3379 114.386C24.0762 112.898 25.1367 111.755 26.5195 110.958C27.9023 110.162 29.5254 109.763 31.3887 109.763C34.2363 109.763 36.4805 110.648 38.1211 112.417C39.7617 114.175 40.582 116.572 40.582 119.607V119.818C40.582 122.783 39.7559 125.138 38.1035 126.884C36.4629 128.619 34.2363 129.486 31.4238 129.486C28.7168 129.486 26.543 128.677 24.9023 127.06C23.2617 125.431 22.377 123.228 22.248 120.451L22.2305 119.449ZM28.1543 119.818C28.1543 121.576 28.4297 122.865 28.9805 123.685C29.5312 124.505 30.3457 124.916 31.4238 124.916C33.5332 124.916 34.6113 123.292 34.6582 120.046V119.449C34.6582 116.039 33.5684 114.333 31.3887 114.333C29.4082 114.333 28.3359 115.804 28.1719 118.746L28.1543 119.818ZM49.4414 129.134H43.5V102.134H49.4414V129.134ZM64.4355 127.078C63.1816 128.683 61.4883 129.486 59.3555 129.486C57.2695 129.486 55.6875 128.882 54.6094 127.675C53.543 126.457 53.0098 124.71 53.0098 122.437V110.115H58.9336V122.472C58.9336 124.101 59.7246 124.916 61.3066 124.916C62.666 124.916 63.6328 124.429 64.207 123.457V110.115H70.166V129.134H64.6113L64.4355 127.078ZM91.084 119.765C91.084 122.718 90.416 125.08 89.0801 126.849C87.7559 128.607 85.9629 129.486 83.7012 129.486C81.9551 129.486 80.5195 128.847 79.3945 127.57V136.447H73.4707V110.115H79.0078L79.1836 111.873C80.3203 110.466 81.8145 109.763 83.666 109.763C86.0098 109.763 87.832 110.63 89.1328 112.365C90.4336 114.087 91.084 116.46 91.084 119.484V119.765ZM85.1602 119.396C85.1602 116.021 84.1758 114.333 82.207 114.333C80.8008 114.333 79.8633 114.837 79.3945 115.845V123.333C79.9102 124.388 80.8594 124.916 82.2422 124.916C84.1289 124.916 85.1016 123.287 85.1602 120.029V119.396ZM100.611 105.386V110.115H103.74V114.228H100.611V122.929C100.611 123.644 100.74 124.142 100.998 124.423C101.256 124.705 101.766 124.845 102.527 124.845C103.113 124.845 103.605 124.81 104.004 124.74V128.976C102.938 129.316 101.824 129.486 100.664 129.486C98.625 129.486 97.1191 129.005 96.1465 128.044C95.1738 127.083 94.6875 125.625 94.6875 123.667V114.228H92.2617V110.115H94.6875V105.386H100.611ZM116.801 129.134C116.59 128.748 116.402 128.179 116.238 127.429C115.148 128.8 113.625 129.486 111.668 129.486C109.875 129.486 108.352 128.947 107.098 127.869C105.844 126.779 105.217 125.414 105.217 123.773C105.217 121.71 105.979 120.152 107.502 119.097C109.025 118.042 111.24 117.515 114.146 117.515H115.975V116.513C115.975 114.767 115.219 113.894 113.707 113.894C112.301 113.894 111.598 114.585 111.598 115.968H105.674C105.674 114.128 106.453 112.634 108.012 111.486C109.582 110.337 111.58 109.763 114.006 109.763C116.432 109.763 118.348 110.355 119.754 111.539C121.16 112.722 121.881 114.345 121.916 116.408V124.828C121.939 126.574 122.209 127.91 122.725 128.835V129.134H116.801ZM113.092 125.267C113.83 125.267 114.439 125.109 114.92 124.792C115.412 124.476 115.764 124.119 115.975 123.72V120.679H114.252C112.189 120.679 111.158 121.605 111.158 123.457C111.158 123.996 111.34 124.435 111.703 124.775C112.066 125.103 112.529 125.267 113.092 125.267ZM132.111 105.386V110.115H135.24V114.228H132.111V122.929C132.111 123.644 132.24 124.142 132.498 124.423C132.756 124.705 133.266 124.845 134.027 124.845C134.613 124.845 135.105 124.81 135.504 124.74V128.976C134.438 129.316 133.324 129.486 132.164 129.486C130.125 129.486 128.619 129.005 127.646 128.044C126.674 127.083 126.188 125.625 126.188 123.667V114.228H123.762V110.115H126.188V105.386H132.111ZM146.789 129.486C143.871 129.486 141.51 128.619 139.705 126.884C137.9 125.138 136.998 122.871 136.998 120.082V119.589C136.998 117.644 137.355 115.927 138.07 114.439C138.797 112.951 139.852 111.802 141.234 110.994C142.617 110.173 144.258 109.763 146.156 109.763C148.828 109.763 150.938 110.595 152.484 112.259C154.031 113.912 154.805 116.22 154.805 119.185V121.488H143.027C143.238 122.554 143.701 123.392 144.416 124.001C145.131 124.611 146.057 124.916 147.193 124.916C149.068 124.916 150.533 124.259 151.588 122.947L154.295 126.146C153.557 127.166 152.508 127.98 151.148 128.589C149.801 129.187 148.348 129.486 146.789 129.486ZM146.121 114.333C144.387 114.333 143.355 115.482 143.027 117.779H149.004V117.322C149.027 116.373 148.787 115.64 148.283 115.125C147.779 114.597 147.059 114.333 146.121 114.333ZM162.803 110.115L162.996 112.347C164.344 110.625 166.154 109.763 168.428 109.763C170.83 109.763 172.453 110.718 173.297 112.628C174.586 110.718 176.449 109.763 178.887 109.763C182.742 109.763 184.723 112.095 184.828 116.759V129.134H178.887V117.128C178.887 116.156 178.723 115.447 178.395 115.001C178.066 114.556 177.469 114.333 176.602 114.333C175.43 114.333 174.557 114.855 173.982 115.898L174 116.144V129.134H168.059V117.164C168.059 116.167 167.9 115.447 167.584 115.001C167.268 114.556 166.664 114.333 165.773 114.333C164.637 114.333 163.77 114.855 163.172 115.898V129.134H157.248V110.115H162.803ZM196.43 119.431C196.43 116.408 197.086 114.041 198.398 112.33C199.711 110.619 201.521 109.763 203.83 109.763C205.775 109.763 207.334 110.56 208.506 112.154L208.928 110.115H214.061V136.447H208.119V127.552C206.982 128.841 205.541 129.486 203.795 129.486C201.545 129.486 199.752 128.619 198.416 126.884C197.092 125.138 196.43 122.654 196.43 119.431ZM202.354 119.8C202.354 123.21 203.338 124.916 205.307 124.916C206.666 124.916 207.604 124.4 208.119 123.369V115.845C207.627 114.837 206.701 114.333 205.342 114.333C203.502 114.333 202.512 115.804 202.371 118.746L202.354 119.8ZM228.756 127.078C227.502 128.683 225.809 129.486 223.676 129.486C221.59 129.486 220.008 128.882 218.93 127.675C217.863 126.457 217.33 124.71 217.33 122.437V110.115H223.254V122.472C223.254 124.101 224.045 124.916 225.627 124.916C226.986 124.916 227.953 124.429 228.527 123.457V110.115H234.486V129.134H228.932L228.756 127.078ZM243.996 129.134H238.055V110.115H243.996V129.134ZM237.703 105.21C237.703 104.367 238.008 103.675 238.617 103.136C239.227 102.597 240.018 102.328 240.99 102.328C241.963 102.328 242.754 102.597 243.363 103.136C243.973 103.675 244.277 104.367 244.277 105.21C244.277 106.054 243.973 106.746 243.363 107.285C242.754 107.824 241.963 108.093 240.99 108.093C240.018 108.093 239.227 107.824 238.617 107.285C238.008 106.746 237.703 106.054 237.703 105.21ZM258.375 129.134C258.164 128.748 257.977 128.179 257.812 127.429C256.723 128.8 255.199 129.486 253.242 129.486C251.449 129.486 249.926 128.947 248.672 127.869C247.418 126.779 246.791 125.414 246.791 123.773C246.791 121.71 247.553 120.152 249.076 119.097C250.6 118.042 252.814 117.515 255.721 117.515H257.549V116.513C257.549 114.767 256.793 113.894 255.281 113.894C253.875 113.894 253.172 114.585 253.172 115.968H247.248C247.248 114.128 248.027 112.634 249.586 111.486C251.156 110.337 253.154 109.763 255.58 109.763C258.006 109.763 259.922 110.355 261.328 111.539C262.734 112.722 263.455 114.345 263.49 116.408V124.828C263.514 126.574 263.783 127.91 264.299 128.835V129.134H258.375ZM254.666 125.267C255.404 125.267 256.014 125.109 256.494 124.792C256.986 124.476 257.338 124.119 257.549 123.72V120.679H255.826C253.764 120.679 252.732 121.605 252.732 123.457C252.732 123.996 252.914 124.435 253.277 124.775C253.641 125.103 254.104 125.267 254.666 125.267ZM283.336 122.085L286.342 110.115H292.582L286.377 129.134H280.33L274.125 110.115H280.383L283.336 122.085ZM293.32 119.449C293.32 117.55 293.689 115.863 294.428 114.386C295.166 112.898 296.227 111.755 297.609 110.958C298.992 110.162 300.615 109.763 302.479 109.763C305.326 109.763 307.57 110.648 309.211 112.417C310.852 114.175 311.672 116.572 311.672 119.607V119.818C311.672 122.783 310.846 125.138 309.193 126.884C307.553 128.619 305.326 129.486 302.514 129.486C299.807 129.486 297.633 128.677 295.992 127.06C294.352 125.431 293.467 123.228 293.338 120.451L293.32 119.449ZM299.244 119.818C299.244 121.576 299.52 122.865 300.07 123.685C300.621 124.505 301.436 124.916 302.514 124.916C304.623 124.916 305.701 123.292 305.748 120.046V119.449C305.748 116.039 304.658 114.333 302.479 114.333C300.498 114.333 299.426 115.804 299.262 118.746L299.244 119.818ZM320.531 129.134H314.59V102.134H320.531V129.134ZM335.525 127.078C334.271 128.683 332.578 129.486 330.445 129.486C328.359 129.486 326.777 128.882 325.699 127.675C324.633 126.457 324.1 124.71 324.1 122.437V110.115H330.023V122.472C330.023 124.101 330.814 124.916 332.396 124.916C333.756 124.916 334.723 124.429 335.297 123.457V110.115H341.256V129.134H335.701L335.525 127.078ZM362.174 119.765C362.174 122.718 361.506 125.08 360.17 126.849C358.846 128.607 357.053 129.486 354.791 129.486C353.045 129.486 351.609 128.847 350.484 127.57V136.447H344.561V110.115H350.098L350.273 111.873C351.41 110.466 352.904 109.763 354.756 109.763C357.1 109.763 358.922 110.63 360.223 112.365C361.523 114.087 362.174 116.46 362.174 119.484V119.765ZM356.25 119.396C356.25 116.021 355.266 114.333 353.297 114.333C351.891 114.333 350.953 114.837 350.484 115.845V123.333C351 124.388 351.949 124.916 353.332 124.916C355.219 124.916 356.191 123.287 356.25 120.029V119.396ZM371.701 105.386V110.115H374.83V114.228H371.701V122.929C371.701 123.644 371.83 124.142 372.088 124.423C372.346 124.705 372.855 124.845 373.617 124.845C374.203 124.845 374.695 124.81 375.094 124.74V128.976C374.027 129.316 372.914 129.486 371.754 129.486C369.715 129.486 368.209 129.005 367.236 128.044C366.264 127.083 365.777 125.625 365.777 123.667V114.228H363.352V110.115H365.777V105.386H371.701ZM387.891 129.134C387.68 128.748 387.492 128.179 387.328 127.429C386.238 128.8 384.715 129.486 382.758 129.486C380.965 129.486 379.441 128.947 378.188 127.869C376.934 126.779 376.307 125.414 376.307 123.773C376.307 121.71 377.068 120.152 378.592 119.097C380.115 118.042 382.33 117.515 385.236 117.515H387.064V116.513C387.064 114.767 386.309 113.894 384.797 113.894C383.391 113.894 382.688 114.585 382.688 115.968H376.764C376.764 114.128 377.543 112.634 379.102 111.486C380.672 110.337 382.67 109.763 385.096 109.763C387.521 109.763 389.438 110.355 390.844 111.539C392.25 112.722 392.971 114.345 393.006 116.408V124.828C393.029 126.574 393.299 127.91 393.814 128.835V129.134H387.891ZM384.182 125.267C384.92 125.267 385.529 125.109 386.01 124.792C386.502 124.476 386.854 124.119 387.064 123.72V120.679H385.342C383.279 120.679 382.248 121.605 382.248 123.457C382.248 123.996 382.43 124.435 382.793 124.775C383.156 125.103 383.619 125.267 384.182 125.267ZM406.26 123.791C406.26 123.287 405.996 122.882 405.469 122.578C404.941 122.273 403.939 121.957 402.463 121.628C400.986 121.3 399.768 120.873 398.807 120.345C397.846 119.806 397.113 119.156 396.609 118.394C396.105 117.632 395.854 116.759 395.854 115.775C395.854 114.029 396.574 112.593 398.016 111.468C399.457 110.332 401.344 109.763 403.676 109.763C406.184 109.763 408.199 110.332 409.723 111.468C411.246 112.605 412.008 114.099 412.008 115.951H406.066C406.066 114.427 405.264 113.666 403.658 113.666C403.037 113.666 402.516 113.841 402.094 114.193C401.672 114.533 401.461 114.96 401.461 115.476C401.461 116.003 401.719 116.431 402.234 116.759C402.75 117.087 403.57 117.357 404.695 117.568C405.832 117.779 406.828 118.031 407.684 118.324C410.543 119.308 411.973 121.072 411.973 123.615C411.973 125.349 411.199 126.761 409.652 127.851C408.117 128.941 406.125 129.486 403.676 129.486C402.047 129.486 400.594 129.193 399.316 128.607C398.039 128.021 397.043 127.224 396.328 126.216C395.613 125.208 395.256 124.148 395.256 123.035H400.793C400.816 123.914 401.109 124.558 401.672 124.968C402.234 125.367 402.955 125.566 403.834 125.566C404.643 125.566 405.246 125.402 405.645 125.074C406.055 124.746 406.26 124.318 406.26 123.791Z" fill="white"/>
<path d="M11.2718 6.61768L9.71338 8.17282L14.7755 13.2353L9.71338 18.2978L11.2718 19.853L17.9034 13.2353L11.2718 6.61768Z" fill="white"/>
<path d="M10.5905 10.4226L9.72474 9.55859L6.04053 13.2351L9.72474 16.9115L10.5905 16.0476L7.77825 13.2351L10.5905 10.4226Z" fill="white"/>
<path d="M43.7695 13.9277C43.7695 14.7676 43.6211 15.5039 43.3242 16.1367C43.0273 16.7695 42.6016 17.2578 42.0469 17.6016C41.4961 17.9453 40.8633 18.1172 40.1484 18.1172C39.4414 18.1172 38.8105 17.9473 38.2559 17.6074C37.7012 17.2676 37.2715 16.7832 36.9668 16.1543C36.6621 15.5215 36.5078 14.7949 36.5039 13.9746V13.5527C36.5039 12.7129 36.6543 11.9746 36.9551 11.3379C37.2598 10.6973 37.6875 10.207 38.2383 9.86719C38.793 9.52344 39.4258 9.35156 40.1367 9.35156C40.8477 9.35156 41.4785 9.52344 42.0293 9.86719C42.584 10.207 43.0117 10.6973 43.3125 11.3379C43.6172 11.9746 43.7695 12.7109 43.7695 13.5469V13.9277ZM41.9883 13.541C41.9883 12.6465 41.8281 11.9668 41.5078 11.502C41.1875 11.0371 40.7305 10.8047 40.1367 10.8047C39.5469 10.8047 39.0918 11.0352 38.7715 11.4961C38.4512 11.9531 38.2891 12.625 38.2852 13.5117V13.9277C38.2852 14.7988 38.4453 15.4746 38.7656 15.9551C39.0859 16.4355 39.5469 16.6758 40.1484 16.6758C40.7383 16.6758 41.1914 16.4453 41.5078 15.9844C41.8242 15.5195 41.9844 14.8438 41.9883 13.957V13.541ZM54.0039 9.46875V15.0879C54.0039 16.0215 53.7109 16.7598 53.125 17.3027C52.543 17.8457 51.7461 18.1172 50.7344 18.1172C49.7383 18.1172 48.9473 17.8535 48.3613 17.3262C47.7754 16.7988 47.4766 16.0742 47.4648 15.1523V9.46875H49.2227V15.0996C49.2227 15.6582 49.3555 16.0664 49.6211 16.3242C49.8906 16.5781 50.2617 16.7051 50.7344 16.7051C51.7227 16.7051 52.2246 16.1855 52.2402 15.1465V9.46875H54.0039ZM61.1035 14.877H59.7031V18H57.9453V9.46875H61.1152C62.123 9.46875 62.9004 9.69336 63.4473 10.1426C63.9941 10.5918 64.2676 11.2266 64.2676 12.0469C64.2676 12.6289 64.1406 13.1152 63.8867 13.5059C63.6367 13.8926 63.2559 14.2012 62.7441 14.4316L64.5898 17.918V18H62.7031L61.1035 14.877ZM59.7031 13.4531H61.1211C61.5625 13.4531 61.9043 13.3418 62.1465 13.1191C62.3887 12.8926 62.5098 12.582 62.5098 12.1875C62.5098 11.7852 62.3945 11.4688 62.1641 11.2383C61.9375 11.0078 61.5879 10.8926 61.1152 10.8926H59.7031V13.4531ZM75.4668 18H73.709V9.46875H75.4668V18ZM81.8984 9.46875L84.0898 15.6562L86.2695 9.46875H88.5781V18H86.8145V15.668L86.9902 11.6426L84.6875 18H83.4805L81.1836 11.6484L81.3594 15.668V18H79.6016V9.46875H81.8984ZM94.3711 14.9941V18H92.6133V9.46875H95.9414C96.582 9.46875 97.1445 9.58594 97.6289 9.82031C98.1172 10.0547 98.4922 10.3887 98.7539 10.8223C99.0156 11.252 99.1465 11.7422 99.1465 12.293C99.1465 13.1289 98.8594 13.7891 98.2852 14.2734C97.7148 14.7539 96.9238 14.9941 95.9121 14.9941H94.3711ZM94.3711 13.5703H95.9414C96.4062 13.5703 96.7598 13.4609 97.002 13.2422C97.248 13.0234 97.3711 12.7109 97.3711 12.3047C97.3711 11.8867 97.248 11.5488 97.002 11.291C96.7559 11.0332 96.416 10.9004 95.9824 10.8926H94.3711V13.5703ZM106.633 16.2422H103.551L102.965 18H101.096L104.271 9.46875H105.9L109.094 18H107.225L106.633 16.2422ZM104.025 14.8184H106.158L105.086 11.625L104.025 14.8184ZM118.959 15.1582C118.893 16.0762 118.553 16.7988 117.939 17.3262C117.33 17.8535 116.525 18.1172 115.525 18.1172C114.432 18.1172 113.57 17.75 112.941 17.0156C112.316 16.2773 112.004 15.2656 112.004 13.9805V13.459C112.004 12.6387 112.148 11.916 112.438 11.291C112.727 10.666 113.139 10.1875 113.674 9.85547C114.213 9.51953 114.838 9.35156 115.549 9.35156C116.533 9.35156 117.326 9.61523 117.928 10.1426C118.529 10.6699 118.877 11.4102 118.971 12.3633H117.213C117.17 11.8125 117.016 11.4141 116.75 11.168C116.488 10.918 116.088 10.793 115.549 10.793C114.963 10.793 114.523 11.0039 114.23 11.4258C113.941 11.8438 113.793 12.4941 113.785 13.377V14.0215C113.785 14.9434 113.924 15.6172 114.201 16.043C114.482 16.4688 114.924 16.6816 115.525 16.6816C116.068 16.6816 116.473 16.5586 116.738 16.3125C117.008 16.0625 117.162 15.6777 117.201 15.1582H118.959ZM128.859 10.8926H126.246V18H124.488V10.8926H121.91V9.46875H128.859V10.8926Z" fill="white"/>
</svg>
