<svg width="16" height="13" viewBox="0 0 16 13" fill="none" xmlns="http://www.w3.org/2000/svg">
<path d="M5.26412 6.01209C5.86412 6.27609 6.33212 6.67209 6.66812 7.20009C7.00412 7.72809 7.17212 8.35209 7.17212 9.07209C7.17212 10.1041 6.84812 10.9441 6.20012 11.5921C5.55212 12.2161 4.72412 12.5281 3.71612 12.5281C2.70812 12.5281 1.86812 12.2041 1.19612 11.5561C0.548121 10.9081 0.224121 10.0801 0.224121 9.07209C0.224121 8.59209 0.284121 8.11209 0.404121 7.63209C0.524121 7.15209 0.788121 6.43209 1.19612 5.47209L3.28412 0.288086H6.84812L5.26412 6.01209ZM13.7601 6.01209C14.3601 6.27609 14.8281 6.67209 15.1641 7.20009C15.5001 7.72809 15.6681 8.35209 15.6681 9.07209C15.6681 10.1041 15.3441 10.9441 14.6961 11.5921C14.0481 12.2161 13.2201 12.5281 12.2121 12.5281C11.2041 12.5281 10.3641 12.2041 9.69212 11.5561C9.04412 10.9081 8.72012 10.0801 8.72012 9.07209C8.72012 8.59209 8.78012 8.11209 8.90012 7.63209C9.02012 7.15209 9.28412 6.43209 9.69212 5.47209L11.7801 0.288086H15.3441L13.7601 6.01209Z" fill="#080808"/>
</svg>
